<?xml version="1.0" encoding="UTF-8"?>
<svg version="1.1" xmlns="http://www.w3.org/2000/svg" width="80" height="60">
<path d="M0 0 C2.55714925 0.98089122 3.3107984 2.07726144 4.796875 4.34765625 C5.22484375 4.98832031 5.6528125 5.62898437 6.09375 6.2890625 C6.40828125 6.78277344 6.7228125 7.27648437 7.046875 7.78515625 C8.14 7.14578125 9.233125 6.50640625 10.359375 5.84765625 C18.0359066 1.35760947 28.7070737 1.41113421 37.25 3.609375 C39.60383468 4.55725154 41.81605634 5.57954616 44.046875 6.78515625 C46.67429712 8.16694831 48.75479157 8.98044358 51.671875 9.78515625 C55.046875 10.78515625 55.046875 10.78515625 57.046875 12.78515625 C57.50343297 16.74564447 57.37089542 20.73889435 57.359375 24.72265625 C57.37548828 25.83318359 57.39160156 26.94371094 57.40820312 28.08789062 C57.40884766 29.15201172 57.40949219 30.21613281 57.41015625 31.3125 C57.41313721 32.28952881 57.41611816 33.26655762 57.41918945 34.27319336 C57.046875 36.78515625 57.046875 36.78515625 55.76635742 38.58813477 C53.36039806 40.26304869 50.91823496 40.3426809 48.0546875 40.6015625 C45.67570987 40.81909547 43.37890325 41.27502507 41.046875 41.78515625 C41.046875 42.44515625 41.046875 43.10515625 41.046875 43.78515625 C41.046875 47.11848958 41.046875 50.45182292 41.046875 53.78515625 C27.29363647 58.26212192 12.13471922 56.42770525 -0.8984375 50.4296875 C-7.60219792 46.69759401 -12.84662314 41.88504831 -15.953125 34.78515625 C-16.41188755 31.54640234 -16.36918704 28.30325489 -16.390625 25.03515625 C-16.42349609 24.16632812 -16.45636719 23.2975 -16.49023438 22.40234375 C-16.55278832 14.82762939 -14.16128279 10.17333091 -9.00390625 4.7265625 C-8.43027344 4.27152344 -7.85664063 3.81648437 -7.265625 3.34765625 C-6.68425781 2.87457031 -6.10289063 2.40148437 -5.50390625 1.9140625 C-2.49720772 -0.27469285 -2.49720772 -0.27469285 0 0 Z M-0.578125 20.97265625 C-2.23002956 22.74709233 -2.23002956 22.74709233 -1.828125 25.34765625 C-1.10923332 28.11131735 -1.10923332 28.11131735 2.046875 29.78515625 C2.046875 26.48515625 2.046875 23.18515625 2.046875 19.78515625 C0.84599764 19.68682015 0.84599764 19.68682015 -0.578125 20.97265625 Z M16.046875 20.78515625 C14.3192142 22.28220509 14.3192142 22.28220509 13.046875 23.78515625 C19.12435683 27.56305036 23.94486532 28.59053879 31.046875 27.78515625 C33.97454447 26.7090145 36.34588668 25.38574192 39.046875 23.78515625 C32.54507749 18.38434962 23.82231791 17.5255125 16.046875 20.78515625 Z " fill="#9FD46B" transform="translate(17.953125,3.21484375)"/>
<path d="M0 0 C2.63840764 1.03937271 3.54887645 2.4663835 5.0625 4.8125 C3.50361903 8.6388442 0.99122044 10.95887496 -1.9375 13.8125 C-3.90640918 17.75031837 -3.26765596 22.461862 -2.25 26.625 C-0.58138216 29.40602973 1.23202367 30.29370782 4.0625 31.8125 C4.52615967 32.30153809 4.98981934 32.79057617 5.4675293 33.29443359 C11.30217848 38.84775498 20.73319667 38.23509023 28.22070312 38.1640625 C32.33901446 38.24396506 35.26034894 38.50095538 38.62109375 41.01953125 C41.0625 43.8125 41.0625 43.8125 41.6484375 46.48828125 C41.57882813 47.35839844 41.50921875 48.22851562 41.4375 49.125 C41.38335937 50.00800781 41.32921875 50.89101563 41.2734375 51.80078125 C41.20382813 52.46464844 41.13421875 53.12851562 41.0625 53.8125 C27.30926147 58.28946567 12.15034422 56.455049 -0.8828125 50.45703125 C-7.58657292 46.72493776 -12.83099814 41.91239206 -15.9375 34.8125 C-16.39626255 31.57374609 -16.35356204 28.33059864 -16.375 25.0625 C-16.40787109 24.19367187 -16.44074219 23.32484375 -16.47460938 22.4296875 C-16.53716332 14.85497314 -14.14565779 10.20067466 -8.98828125 4.75390625 C-8.41464844 4.29886719 -7.84101563 3.84382812 -7.25 3.375 C-6.66863281 2.90191406 -6.08726563 2.42882812 -5.48828125 1.94140625 C-3.50784065 0.49972531 -2.48473478 -0.2404582 0 0 Z " fill="#E4E456" transform="translate(17.9375,3.1875)"/>
<path d="M0 0 C0.125 2.375 0.125 2.375 0 5 C-0.66 5.66 -1.32 6.32 -2 7 C-2.63388219 11.19020827 -2.42978705 14.95946293 -0.8125 18.875 C2.42698961 22.6730223 5.74610279 24.36071205 10.73046875 24.87109375 C20.47037367 25.42430694 28.67718097 25.02361698 38 22 C38 25.63 38 29.26 38 33 C38.99 33 39.98 33 41 33 C41 27.06 41 21.12 41 15 C43.64 13.68 46.28 12.36 49 11 C49.66 9.68 50.32 8.36 51 7 C51.08696177 10.93736123 51.14037835 14.87447628 51.1875 18.8125 C51.21263672 19.93205078 51.23777344 21.05160156 51.26367188 22.20507812 C51.27333984 23.27822266 51.28300781 24.35136719 51.29296875 25.45703125 C51.3086792 26.44678955 51.32438965 27.43654785 51.34057617 28.45629883 C51 31 51 31 49.72387695 32.80737305 C46.82715059 34.81141048 43.41527784 34.69255816 40 35 C37.19156389 35.49927753 34.71092137 36.09635954 32 37 C31.58878906 36.51265381 31.17757812 36.02530762 30.75390625 35.52319336 C28.62793832 33.67688018 27.71050761 33.63173713 24.9375 33.62890625 C24.14520996 33.61424316 23.35291992 33.59958008 22.53662109 33.58447266 C21.28099365 33.57359619 21.28099365 33.57359619 20 33.5625 C12.65284833 33.34415762 5.43962744 32.97338715 -1 29 C-1.33 28.01 -1.66 27.02 -2 26 C-3.64551962 25.28272222 -5.31422289 24.61674772 -7 24 C-10.07982034 20.92017966 -9.95041314 18.50413306 -10.375 14.1875 C-10.32099395 9.3629594 -8.21200999 6.44926072 -5 3 C-1.51612903 0 -1.51612903 0 0 0 Z M-6.625 15.1875 C-8.27690456 16.96193608 -8.27690456 16.96193608 -7.875 19.5625 C-7.15610832 22.3261611 -7.15610832 22.3261611 -4 24 C-4 20.7 -4 17.4 -4 14 C-5.20087736 13.9016639 -5.20087736 13.9016639 -6.625 15.1875 Z " fill="#7DA77A" transform="translate(24,9)"/>
<path d="M0 0 C0.33 0 0.66 0 1 0 C1 4.95 1 9.9 1 15 C1.99 15 2.98 15 4 15 C4.43957031 15.76054688 4.87914062 16.52109375 5.33203125 17.3046875 C7.38796369 20.62692025 9.17778429 21.48024206 12.6875 23.125 C13.75613281 23.62644531 14.82476562 24.12789062 15.92578125 24.64453125 C25.63312926 28.9246453 33.81330649 30.15108195 44.375 30.0625 C45.39722656 30.05798828 46.41945312 30.05347656 47.47265625 30.04882812 C49.98183194 30.037103 52.4908849 30.02069176 55 30 C55.33 29.34 55.66 28.68 56 28 C57 29 57 29 57.09765625 31.28515625 C57.08605469 32.20167969 57.07445312 33.11820313 57.0625 34.0625 C57.05347656 34.98160156 57.04445312 35.90070312 57.03515625 36.84765625 C57.02355469 37.55792969 57.01195312 38.26820312 57 39 C43.24676147 43.47696567 28.08784422 41.642549 15.0546875 35.64453125 C8.38453664 31.93114876 3.04664585 27.10145451 0 20 C-0.22705078 17.70996094 -0.22705078 17.70996094 -0.1953125 15.234375 C-0.18886719 14.34492187 -0.18242187 13.45546875 -0.17578125 12.5390625 C-0.15902344 11.61867188 -0.14226563 10.69828125 -0.125 9.75 C-0.11597656 8.81414063 -0.10695312 7.87828125 -0.09765625 6.9140625 C-0.07413636 4.60911343 -0.04126853 2.3046884 0 0 Z " fill="#B4B369" transform="translate(2,18)"/>
<path d="M0 0 C0 0.66 0 1.32 0 2 C0.99 2 1.98 2 3 2 C3 6.62 3 11.24 3 16 C2.01 16 1.02 16 0 16 C0 15.34 0 14.68 0 14 C-5.19397424 10.7537661 -10.87289548 10.58174204 -16.6875 11.8125 C-19.906708 12.63122591 -22.96642014 13.62999619 -26 15 C-28.34168764 11.48746854 -28.49623677 10.13530644 -28 6 C-25.81547293 2.24261345 -23.28933131 0.05962621 -19.1953125 -1.5 C-12.6822635 -2.98339906 -6.07657382 -2.79344327 0 0 Z " fill="#77A17C" transform="translate(55,12)"/>
<path d="M0 0 C0.33 0 0.66 0 1 0 C1.08696177 3.93736123 1.14037835 7.87447628 1.1875 11.8125 C1.21263672 12.93205078 1.23777344 14.05160156 1.26367188 15.20507812 C1.27333984 16.27822266 1.28300781 17.35136719 1.29296875 18.45703125 C1.3086792 19.44678955 1.32438965 20.43654785 1.34057617 21.45629883 C1 24 1 24 -0.27612305 25.8034668 C-4.21457557 28.53712432 -10.33176602 28.14588231 -15 28 C-14.67 27.34 -14.34 26.68 -14 26 C-13.92966231 24.12620395 -13.9156978 22.24998898 -13.9375 20.375 C-13.94652344 19.37210938 -13.95554688 18.36921875 -13.96484375 17.3359375 C-13.97644531 16.56507812 -13.98804688 15.79421875 -14 15 C-13.34 15 -12.68 15 -12 15 C-12 18.63 -12 22.26 -12 26 C-11.01 26 -10.02 26 -9 26 C-9 20.06 -9 14.12 -9 8 C-6.36 6.68 -3.72 5.36 -1 4 C-0.67 2.68 -0.34 1.36 0 0 Z " fill="#739D80" transform="translate(74,16)"/>
<path d="M0 0 C1.31352023 0.30818356 2.62579572 0.62167665 3.9375 0.9375 C5.03384766 1.19853516 5.03384766 1.19853516 6.15234375 1.46484375 C8 2 8 2 9 3 C9.3125 5.375 9.3125 5.375 9 8 C7.22513338 10.1446305 5.84460623 10.87365521 3.09375 11.28515625 C-0.41149829 11.43556802 -2.44332073 11.33400756 -5.5 9.5 C-5.995 9.005 -6.49 8.51 -7 8 C-6.42655063 5.13275314 -6.1385485 4.1385485 -4 2 C-2.68 2 -1.36 2 0 2 C0 1.34 0 0.68 0 0 Z " fill="#A3DA6B" transform="translate(65,12)"/>
<path d="M0 0 C0.66 0.33 1.32 0.66 2 1 C1.34 1.66 0.68 2.32 0 3 C0.3185177 5.10820797 0.3185177 5.10820797 1 7 C3.31 7.66 5.62 8.32 8 9 C7.01 9.495 7.01 9.495 6 10 C6 15.94 6 21.88 6 28 C5.01 28 4.02 28 3 28 C2.96261719 27.22914062 2.92523438 26.45828125 2.88671875 25.6640625 C2.78810547 24.15972656 2.78810547 24.15972656 2.6875 22.625 C2.62949219 21.62726562 2.57148437 20.62953125 2.51171875 19.6015625 C2.34285156 18.74304688 2.17398438 17.88453125 2 17 C1.01 16.34 0.02 15.68 -1 15 C-2.04835133 12.15187789 -2.16227083 9.39240889 -2.1875 6.375 C-2.20167969 5.59898438 -2.21585938 4.82296875 -2.23046875 4.0234375 C-2 2 -2 2 0 0 Z " fill="#8ABA73" transform="translate(59,14)"/>
<path d="M0 0 C0.33 0 0.66 0 1 0 C1.08696177 3.93736123 1.14037835 7.87447628 1.1875 11.8125 C1.21263672 12.93205078 1.23777344 14.05160156 1.26367188 15.20507812 C1.27817383 16.81479492 1.27817383 16.81479492 1.29296875 18.45703125 C1.31653442 19.9416687 1.31653442 19.9416687 1.34057617 21.45629883 C1 24 1 24 -0.390625 25.81445312 C-3.29945191 27.95724188 -6.46994093 27.7106509 -10 28 C-7 26 -7 26 -3 26 C-3.03480469 24.70964844 -3.06960937 23.41929688 -3.10546875 22.08984375 C-3.13362342 20.37240894 -3.16092177 18.65495993 -3.1875 16.9375 C-3.21263672 16.08994141 -3.23777344 15.24238281 -3.26367188 14.36914062 C-3.32846972 8.7749264 -2.57466587 4.98039041 0 0 Z " fill="#4E667F" transform="translate(74,16)"/>
<path d="M0 0 C0.35286978 4.23443737 -0.4236592 5.73002899 -3 9 C-3.309375 9.969375 -3.61875 10.93875 -3.9375 11.9375 C-5.09883617 15.28488072 -6.67127672 17.36078029 -9 20 C-10.62147116 16.75705769 -10.56936884 13.50478152 -10 10 C-8.31873364 6.5971169 -4.30772574 0 0 0 Z " fill="#6F6F8C" transform="translate(24,9)"/>
<path d="M0 0 C0.66 0.33 1.32 0.66 2 1 C1.67 7.27 1.34 13.54 1 20 C0.01 20 -0.98 20 -2 20 C-2 13.73 -2 7.46 -2 1 C-1.34 0.67 -0.68 0.34 0 0 Z " fill="#668D87" transform="translate(70,22)"/>
<path d="M0 0 C0.99 0.33 1.98 0.66 3 1 C2.2884375 1.7734375 2.2884375 1.7734375 1.5625 2.5625 C-0.42809407 5.66782675 -0.65060818 8.36632504 -1 12 C-0.34 12.33 0.32 12.66 1 13 C-0.32 13 -1.64 13 -3 13 C-4.42662219 10.14675563 -4.31033868 8.16545451 -4 5 C-2 2.125 -2 2.125 0 0 Z " fill="#52708A" transform="translate(31,13)"/>
<path d="M0 0 C-1.44077046 3.36179774 -3.24750021 5.59156268 -6 8 C-6.66 8 -7.32 8 -8 8 C-6.48291727 4.46014029 -4.24676932 0 0 0 Z " fill="#C0C051" transform="translate(13,6)"/>
<path d="M0 0 C0.33 0 0.66 0 1 0 C1.144375 1.093125 1.28875 2.18625 1.4375 3.3125 C1.88288104 6.93122987 1.88288104 6.93122987 3 10 C2.34 10 1.68 10 1 10 C1 11.65 1 13.3 1 15 C0.67 15 0.34 15 0 15 C0 10.05 0 5.1 0 0 Z " fill="#87B267" transform="translate(20,18)"/>
</svg>
